<svg width="28" height="30" fill="none" xmlns="http://www.w3.org/2000/svg"><g filter="url('#filter0_d_2536_2784')" fill="#fff"><path d="M11.75 17A7.25 7.25 0 1 1 19 9.77 7.26 7.26 0 0 1 11.75 17Zm0-13.5A6.25 6.25 0 1 0 18 9.77a6.25 6.25 0 0 0-6.25-6.25V3.5Z"/><path d="M23 21.52a.469.469 0 0 1-.35-.15l-6.48-6.48a.495.495 0 1 1 .7-.7l6.48 6.48a.48.48 0 0 1 0 .7.47.47 0 0 1-.35.15Z"/></g><defs><filter id="filter0_d_2536_2784" x="-2" y="0" width="32" height="32" filterUnits="userSpaceOnUse" color-interpolation-filters="sRGB"><feFlood flood-opacity="0" result="BackgroundImageFix"/><feColorMatrix in="SourceAlpha" values="0 0 0 0 0 0 0 0 0 0 0 0 0 0 0 0 0 0 127 0" result="hardAlpha"/><feOffset dy="4"/><feGaussianBlur stdDeviation="2"/><feComposite in2="hardAlpha" operator="out"/><feColorMatrix values="0 0 0 0 0 0 0 0 0 0 0 0 0 0 0 0 0 0 0.25 0"/><feBlend in2="BackgroundImageFix" result="effect1_dropShadow_2536_2784"/><feBlend in="SourceGraphic" in2="effect1_dropShadow_2536_2784" result="shape"/></filter></defs></svg>