<svg width="28" height="30" viewBox="0 0 28 30" fill="none" xmlns="http://www.w3.org/2000/svg">
<g filter="url(#filter0_d_2536_2784)">
<path d="M11.75 17C10.3152 17 8.91271 16.5743 7.72002 15.7768C6.52733 14.9792 5.5981 13.8457 5.04996 12.5198C4.50181 11.1939 4.35941 9.73513 4.64078 8.32823C4.92215 6.92132 5.61463 5.62953 6.63056 4.6164C7.6465 3.60327 8.94019 2.91436 10.3479 2.63688C11.7555 2.3594 13.2139 2.50583 14.5383 3.05763C15.8627 3.60944 16.9936 4.5418 17.7879 5.73668C18.5821 6.93157 19.0039 8.33524 19 9.77C18.992 11.6885 18.225 13.5259 16.8665 14.8807C15.508 16.2354 13.6685 16.9974 11.75 17ZM11.75 3.5C10.5147 3.50001 9.30712 3.86607 8.27975 4.55195C7.25238 5.23782 6.4513 6.21276 5.97767 7.35364C5.50404 8.49451 5.3791 9.75015 5.61864 10.962C5.85819 12.1738 6.45146 13.2875 7.32354 14.1624C8.19561 15.0372 9.30739 15.6341 10.5184 15.8775C11.7295 16.1209 12.9855 16 14.1279 15.53C15.2703 15.06 16.2478 14.262 16.937 13.2369C17.6261 12.2117 17.996 11.0053 18 9.77C18 8.1124 17.3415 6.52269 16.1694 5.35059C14.9973 4.17848 13.4076 3.52 11.75 3.52V3.5Z" fill="white"/>
<path d="M23 21.5199C22.9344 21.5207 22.8694 21.5078 22.8091 21.4819C22.7488 21.4561 22.6946 21.4179 22.65 21.3699L16.17 14.8899C16.0772 14.7971 16.025 14.6712 16.025 14.5399C16.025 14.4086 16.0772 14.2827 16.17 14.1899C16.2628 14.0971 16.3887 14.0449 16.52 14.0449C16.6513 14.0449 16.7772 14.0971 16.87 14.1899L23.35 20.6699C23.3978 20.7148 23.436 20.769 23.462 20.8292C23.4881 20.8894 23.5015 20.9543 23.5015 21.0199C23.5015 21.0855 23.4881 21.1504 23.462 21.2106C23.436 21.2708 23.3978 21.325 23.35 21.3699C23.3054 21.4179 23.2511 21.4561 23.1909 21.4819C23.1306 21.5078 23.0656 21.5207 23 21.5199Z" fill="white"/>
</g>
<defs>
<filter id="filter0_d_2536_2784" x="-2" y="0" width="32" height="32" filterUnits="userSpaceOnUse" color-interpolation-filters="sRGB">
<feFlood flood-opacity="0" result="BackgroundImageFix"/>
<feColorMatrix in="SourceAlpha" type="matrix" values="0 0 0 0 0 0 0 0 0 0 0 0 0 0 0 0 0 0 127 0" result="hardAlpha"/>
<feOffset dy="4"/>
<feGaussianBlur stdDeviation="2"/>
<feComposite in2="hardAlpha" operator="out"/>
<feColorMatrix type="matrix" values="0 0 0 0 0 0 0 0 0 0 0 0 0 0 0 0 0 0 0.25 0"/>
<feBlend mode="normal" in2="BackgroundImageFix" result="effect1_dropShadow_2536_2784"/>
<feBlend mode="normal" in="SourceGraphic" in2="effect1_dropShadow_2536_2784" result="shape"/>
</filter>
</defs>
</svg>
